<?xml version="1.0" standalone="no"?>
<!DOCTYPE svg PUBLIC "-//W3C//DTD SVG 20010904//EN"
 "http://www.w3.org/TR/2001/REC-SVG-20010904/DTD/svg10.dtd">
<svg version="1.0" xmlns="http://www.w3.org/2000/svg"
 width="1537.000000pt" height="1537.000000pt" viewBox="0 0 1537.000000 1537.000000"
 preserveAspectRatio="xMidYMid meet">
<metadata>
Created by potrace 1.11, written by Peter Selinger 2001-2013
</metadata>
<g transform="translate(0.000000,1537.000000) scale(0.100000,-0.100000)"
fill="#000000" stroke="none">
<path d="M7200 15204 c-132 -7 -308 -27 -395 -44 -49 -10 -128 -21 -175 -25
-143 -10 -249 -25 -395 -57 -261 -56 -321 -87 -521 -264 -163 -145 -246 -204
-416 -301 -181 -103 -250 -167 -315 -296 -65 -129 -90 -241 -72 -325 21 -104
102 -202 202 -246 64 -29 83 -58 72 -113 -3 -17 -10 -88 -15 -157 -8 -124 -9
-125 -62 -228 -29 -57 -51 -107 -50 -113 2 -5 1 -7 -3 -3 -4 3 -36 -37 -72
-90 -68 -100 -187 -244 -344 -416 -132 -144 -285 -379 -408 -624 -168 -336
-201 -521 -201 -1142 0 -424 14 -597 67 -855 32 -153 34 -274 7 -423 -25 -141
-54 -178 -151 -188 -41 -4 -129 -48 -137 -69 -29 -77 31 -417 123 -700 152
-464 170 -547 180 -840 9 -253 15 -284 65 -370 14 -22 47 -62 75 -88 48 -45
53 -47 109 -47 l59 0 8 -122 c3 -68 11 -157 16 -198 5 -41 14 -145 19 -230 12
-194 70 -552 98 -600 11 -19 37 -84 58 -145 20 -60 56 -148 79 -195 24 -47 48
-103 55 -125 57 -181 120 -281 286 -455 40 -41 95 -104 122 -140 28 -36 61
-78 73 -93 19 -25 20 -31 9 -55 -7 -15 -16 -91 -20 -172 -9 -162 -23 -225 -99
-452 -49 -146 -99 -250 -172 -358 -43 -64 -55 -104 -64 -220 -4 -47 -11 -90
-17 -97 -5 -7 -8 -130 -6 -305 5 -389 25 -547 107 -853 16 -60 37 -148 46
-195 9 -47 32 -125 50 -175 19 -49 66 -184 105 -300 39 -115 84 -245 101 -288
16 -43 29 -83 29 -88 0 -6 12 -36 26 -67 40 -88 111 -271 140 -361 8 -25 23
-60 34 -78 11 -18 31 -67 46 -109 30 -87 64 -162 99 -219 14 -22 43 -74 65
-116 23 -42 52 -87 66 -100 l24 -23 17 24 c23 33 93 99 123 115 56 31 380 373
380 401 0 3 13 19 30 37 16 18 30 36 30 41 0 5 11 32 24 60 13 28 40 85 60
127 20 42 36 81 36 86 0 5 9 28 20 51 11 22 20 48 20 57 0 8 5 15 10 15 6 0
10 6 10 13 0 8 18 50 40 95 22 44 40 85 40 91 0 17 49 108 66 122 8 6 14 17
14 23 0 7 16 28 36 47 19 18 43 52 53 74 10 22 41 63 70 92 28 29 51 56 51 61
0 4 14 23 32 41 31 31 35 33 88 27 50 -6 127 -32 140 -46 8 -10 110 -48 160
-60 25 -6 64 -20 87 -31 24 -10 47 -19 53 -19 6 0 33 -11 60 -25 27 -14 58
-25 69 -25 37 0 126 34 146 56 11 12 38 28 60 34 61 19 278 107 332 134 73 37
223 88 243 83 13 -3 22 3 30 23 19 45 46 44 98 -3 74 -68 183 -180 200 -207 9
-14 34 -44 56 -67 22 -24 47 -55 56 -70 9 -16 24 -34 33 -41 8 -7 33 -48 54
-90 21 -42 50 -92 65 -110 16 -18 28 -39 28 -47 0 -8 5 -15 10 -15 6 0 10 -5
10 -10 0 -10 80 -194 101 -232 5 -10 9 -23 9 -28 0 -6 9 -30 20 -52 11 -23 20
-50 20 -61 0 -10 13 -46 29 -80 39 -81 67 -166 81 -247 6 -36 15 -89 20 -119
6 -36 6 -67 -2 -97 -7 -24 -9 -46 -6 -50 4 -3 30 10 60 29 110 70 305 321 406
523 12 23 48 84 82 135 33 51 60 101 60 111 0 10 5 18 10 18 6 0 10 7 10 15 0
8 4 23 10 33 11 21 76 162 101 220 11 24 19 61 19 83 0 22 11 59 25 87 14 26
42 97 64 157 21 61 48 135 59 165 11 30 25 84 32 120 6 36 22 100 36 143 13
44 31 122 40 175 8 54 19 115 24 137 5 22 14 86 20 142 6 56 20 153 31 215 38
214 41 261 29 493 -11 222 -31 443 -50 545 -5 30 -17 111 -25 180 -26 219 -32
253 -58 330 -14 41 -28 91 -31 110 -3 19 -13 48 -21 64 -8 15 -15 32 -15 37 0
9 -16 47 -61 147 -10 23 -19 48 -19 54 0 6 -18 35 -40 64 -22 30 -45 64 -50
76 -6 13 -19 37 -29 53 -27 41 -25 68 4 103 14 17 32 49 40 71 21 61 68 125
166 226 51 52 91 103 95 120 4 16 22 49 41 73 18 24 33 51 33 60 1 9 7 35 15
57 9 22 20 71 25 108 6 37 19 86 30 107 17 34 20 59 20 184 0 179 13 277 51
386 37 105 58 174 70 223 36 150 36 150 90 160 24 4 64 11 89 15 72 13 120 41
193 111 75 73 121 156 139 251 5 30 15 64 21 75 6 11 14 70 18 130 5 61 13
137 19 170 6 33 15 170 20 305 8 249 11 275 51 460 12 58 22 123 22 145 -5
246 -2 337 17 435 11 58 20 142 20 187 0 80 -1 83 -32 112 -18 17 -38 31 -45
31 -6 0 -13 6 -16 13 -2 8 -25 11 -74 10 l-71 -1 13 46 c17 62 28 90 81 199
24 50 41 98 38 106 -3 8 0 35 7 58 7 24 13 56 15 71 1 16 9 39 18 53 9 13 16
44 16 67 1 24 7 54 15 68 8 14 14 42 15 63 0 21 6 50 13 65 23 46 40 138 34
184 -3 23 -11 75 -16 113 -6 39 -8 99 -5 135 6 62 42 162 64 175 13 8 13 52 0
60 -5 3 -10 19 -10 35 0 16 5 32 10 35 15 9 12 59 -9 160 -45 211 -61 373 -64
648 -1 79 2 120 9 125 16 9 44 107 44 151 0 20 9 47 20 61 11 14 20 33 20 43
0 9 9 34 20 54 11 21 20 49 20 63 0 14 9 54 20 90 28 93 27 206 -5 305 -13 42
-29 83 -35 90 -6 7 -20 46 -31 86 -11 40 -29 85 -39 100 -11 15 -20 34 -20 43
0 9 -4 16 -8 16 -4 0 -13 19 -20 43 -9 28 -31 60 -68 96 -31 30 -64 72 -75 94
-11 21 -34 46 -51 55 -54 30 -221 143 -255 173 -19 16 -43 29 -53 29 -11 0
-20 5 -20 10 0 6 -9 10 -19 10 -10 0 -33 16 -50 35 -29 33 -31 40 -25 89 6 46
4 55 -13 67 -11 8 -35 35 -52 62 -18 26 -37 47 -42 47 -13 0 -69 55 -69 68 0
6 -16 14 -35 18 -26 5 -35 11 -35 26 0 21 -86 108 -107 108 -7 0 -13 3 -13 8
0 4 -15 13 -32 20 -64 26 -163 76 -166 84 -2 4 -10 8 -17 8 -35 0 -161 87
-234 161 -14 15 -35 31 -47 37 -31 16 -575 199 -679 228 -129 37 -231 78 -310
125 -64 39 -70 41 -105 30 -57 -17 -91 -13 -150 16 -61 30 -79 44 -123 91 -17
17 -35 32 -42 32 -6 0 -24 13 -39 29 -15 16 -47 34 -69 40 -23 6 -64 28 -92
49 -49 37 -113 72 -133 72 -5 0 -15 6 -21 14 -7 8 -24 17 -39 21 -14 3 -55 20
-89 37 -60 28 -65 29 -113 18 -54 -13 -91 -7 -215 32 -60 19 -275 30 -425 22z
m966 -2898 c16 -8 65 -17 109 -20 44 -3 114 -13 155 -22 41 -9 93 -18 115 -21
22 -3 45 -9 51 -14 6 -5 32 -12 58 -15 26 -4 49 -11 52 -15 3 -5 20 -9 38 -9
18 0 35 -3 39 -6 3 -4 34 -17 69 -29 35 -13 90 -33 123 -45 128 -47 327 -198
465 -354 55 -61 117 -128 139 -150 42 -41 51 -52 153 -211 60 -93 74 -129 93
-235 4 -19 18 -68 31 -108 13 -40 24 -79 24 -88 0 -8 25 -114 55 -234 30 -120
57 -243 61 -272 3 -29 13 -78 20 -108 8 -30 14 -89 14 -132 0 -42 5 -80 10
-83 12 -8 13 -89 1 -113 -5 -9 -14 -73 -20 -142 -5 -69 -20 -156 -31 -195 -25
-84 -37 -131 -45 -167 l-5 -28 -93 0 c-57 0 -109 6 -137 16 -33 12 -114 18
-315 24 -148 5 -277 8 -285 8 -8 -1 -32 0 -52 0 l-37 2 35 81 c50 119 72 191
94 309 28 149 41 211 51 244 12 38 12 201 0 240 -6 17 -17 56 -26 88 -71 247
-248 474 -545 695 -30 23 -73 51 -95 64 -68 38 -194 99 -205 99 -6 0 -33 11
-60 25 -27 14 -73 32 -102 40 -29 8 -78 22 -108 31 -30 9 -71 17 -90 18 -19 1
-45 7 -57 14 -13 7 -42 10 -69 8 -26 -3 -117 -6 -203 -6 -93 -1 -182 -8 -219
-16 -35 -8 -93 -16 -129 -18 -36 -2 -70 -9 -76 -15 -6 -6 -19 -11 -30 -11 -19
0 -74 -16 -182 -53 -56 -19 -81 -29 -221 -93 -72 -32 -238 -149 -284 -200 -87
-95 -143 -192 -184 -316 -20 -60 -25 -97 -28 -215 -2 -78 -7 -145 -11 -149 -4
-5 -29 3 -55 16 -45 24 -51 25 -282 26 -129 1 -257 -3 -285 -8 -27 -5 -81 -14
-120 -19 -38 -5 -92 -11 -118 -15 -27 -3 -53 -2 -58 3 -6 6 -1 33 11 69 12 32
27 86 35 119 8 33 23 101 35 150 40 170 88 280 191 440 94 144 147 209 269
328 149 146 290 258 442 352 68 41 130 80 138 85 18 11 168 86 190 94 8 3 22
10 30 15 20 12 56 25 105 40 22 7 54 18 70 26 17 7 44 18 60 25 17 6 43 18 58
26 16 8 37 14 46 14 10 0 21 3 25 7 20 21 94 39 246 63 41 6 84 15 95 20 11 5
31 9 45 8 47 -2 295 14 330 22 19 4 107 8 196 9 121 1 168 -3 190 -13z m1518
-2925 c3 -4 43 -9 88 -10 45 -1 88 -6 94 -12 11 -9 4 -24 -81 -181 -91 -168
-190 -309 -305 -434 -97 -105 -226 -231 -273 -267 -53 -40 -207 -181 -207
-189 0 -4 -5 -8 -12 -8 -6 0 -21 -8 -32 -19 -33 -30 -261 -168 -339 -205 -121
-57 -187 -86 -198 -86 -10 0 -21 -5 -100 -46 -19 -10 -34 -13 -38 -7 -3 6 -26
40 -50 76 -25 37 -46 75 -47 84 -1 10 -12 43 -24 73 -24 62 -48 157 -60 240
-5 30 -13 75 -19 100 -14 57 -31 153 -28 155 8 6 198 132 267 179 47 31 99 70
117 87 18 16 36 29 41 29 4 0 21 14 38 31 16 17 54 48 84 69 64 44 275 258
309 313 l23 37 373 0 c206 0 376 -4 379 -9z m-1785 -863 c6 -18 17 -83 25
-144 14 -106 46 -204 67 -204 5 0 8 -3 7 -7 -3 -13 33 -68 115 -180 42 -58 75
-108 73 -111 -3 -2 -63 -24 -133 -47 -144 -49 -162 -64 -144 -116 8 -24 8 -36
0 -46 -9 -10 -8 -33 4 -96 9 -45 19 -104 22 -132 3 -27 11 -88 17 -135 6 -47
12 -193 12 -325 1 -142 5 -246 11 -255 6 -8 10 -60 10 -116 0 -58 5 -107 11
-115 39 -49 15 -93 -45 -83 -23 4 -56 0 -85 -10 -28 -10 -61 -14 -80 -11 -17
4 -69 1 -116 -5 -47 -6 -228 -13 -403 -16 l-317 -6 4 94 c6 116 -3 246 -19
261 -6 7 -12 39 -12 72 -1 80 -19 281 -27 294 -4 5 -11 52 -16 103 -23 229
-33 294 -46 315 -9 14 -11 30 -6 44 8 21 3 64 -13 115 -5 18 4 30 53 68 36 29
79 76 108 119 26 40 72 103 103 141 79 98 158 247 167 313 9 61 24 83 56 83
30 0 68 8 193 40 134 35 219 59 240 69 11 5 43 17 70 27 28 9 54 21 60 26 16
14 23 9 34 -24z m-836 -240 c-8 -38 -24 -92 -33 -113 -4 -11 -19 -48 -33 -81
-31 -74 -133 -220 -177 -252 -17 -13 -33 -22 -35 -20 -1 1 -12 41 -24 88 -24
98 -36 200 -24 216 9 12 68 46 203 116 52 27 99 54 105 59 16 15 23 10 18 -13z
m572 -2497 c55 -6 109 -15 120 -20 11 -5 40 -17 64 -27 83 -35 182 -196 211
-344 5 -25 18 -72 30 -105 16 -45 20 -75 16 -120 -9 -114 -17 -136 -88 -242
-173 -253 -403 -391 -551 -330 -52 22 -246 156 -287 199 -110 115 -184 402
-155 600 5 33 4 53 -5 63 -9 11 -8 20 7 42 10 15 24 41 31 56 24 55 74 105
163 161 49 31 97 56 106 56 10 1 28 6 40 13 26 15 159 14 298 -2z"/>
</g>
</svg>
